<?xml version="1.0" encoding="UTF-8"?>
<svg width="50px" height="31px" viewBox="0 0 50 31" version="1.1" xmlns="http://www.w3.org/2000/svg" xmlns:xlink="http://www.w3.org/1999/xlink">
    <!-- Generator: Sketch 43.2 (39069) - http://www.bohemiancoding.com/sketch -->
    <title>001-envelope</title>
    <desc>Created with Sketch.</desc>
    <defs></defs>
    <g id="Page-1" stroke="none" stroke-width="1" fill="none" fill-rule="evenodd">
        <g id="Artboard-3" transform="translate(-162.000000, -63.000000)" fill-rule="nonzero" fill="#FFFFFF">
            <g id="001-envelope" transform="translate(162.000000, 63.000000)">
                <path d="M49.9654297,2.64632692 C49.9633789,1.2106891 48.8148437,0.0442147436 47.4041992,0.0442147436 L47.4008789,0.0442147436 L2.55761719,0.106910256 C1.87353516,0.107804487 1.23066406,0.37975 0.747558594,0.872570513 C0.264550781,1.36549038 -0.00087890625,2.02036538 1.73471924e-16,2.71617628 L0.0346679688,28.3536731 C0.035546875,29.0496827 0.302832031,29.7037628 0.787207031,30.1952917 C1.27070312,30.6859263 1.91279297,30.9558846 2.59570312,30.9558846 L2.59912109,30.9558846 L47.4422852,30.8931891 C48.8541992,30.8912019 50.0015625,29.7208526 49.9999023,28.2839231 L49.9654297,2.64632692 Z M44.590918,2.65387821 L25.0019531,16.508891 L5.375,2.70872436 L44.590918,2.65387821 Z M33.2857422,19.1237212 L44.9040039,28.2910769 L5.06298828,28.3467179 L16.7520508,19.1237212 C17.3108398,18.6826667 17.4125977,17.8643462 16.9791992,17.2956154 C16.5457031,16.7270833 15.7414062,16.6235513 15.1824219,17.0645064 L2.59384766,26.9973237 L2.56259766,3.89884615 L24.2758789,19.1660481 C24.4950195,19.3201538 24.7494141,19.3970577 25.0039062,19.3970577 C25.2594727,19.3970577 25.5152344,19.3192596 25.7348633,19.1639615 L47.405957,3.83644872 L47.4387695,26.9936474 L34.8551758,17.0646058 C34.2966797,16.62375 33.4919922,16.7271827 33.0585937,17.2957147 C32.6250977,17.8642468 32.7267578,18.682766 33.2857422,19.1237212 Z" id="Shape"></path>
            </g>
        </g>
    </g>
</svg>