<?xml version="1.0" encoding="UTF-8"?>
<svg width="48px" height="48px" viewBox="0 0 48 48" version="1.1" xmlns="http://www.w3.org/2000/svg" xmlns:xlink="http://www.w3.org/1999/xlink">
    <!-- Generator: Sketch 43.2 (39069) - http://www.bohemiancoding.com/sketch -->
    <title>003-social</title>
    <desc>Created with Sketch.</desc>
    <defs></defs>
    <g id="Page-1" stroke="none" stroke-width="1" fill="none" fill-rule="evenodd">
        <g id="Artboard-3" transform="translate(-271.000000, -55.000000)" fill-rule="nonzero" fill="#FFFFFF">
            <g id="003-social" transform="translate(271.000000, 55.000000)">
                <path d="M24,48 C10.745166,48 0,37.254834 0,24 C0,10.745166 10.745166,0 24,0 C37.254834,0 48,10.745166 48,24 C48,37.254834 37.254834,48 24,48 Z M38.5,31.45 C38.4666667,31.2501634 38.3830882,31.0668301 38.2497549,30.9001634 C38.1164216,30.7334967 37.9664216,30.5834967 37.7997549,30.4501634 L31.8997549,27.0000817 C31.6497549,26.8500817 31.3830882,26.8003268 31.0497549,26.8003268 C30.5164216,26.8003268 30.0997549,26.9669118 29.7997549,27.3000817 L28.0497549,29.0502451 C27.9495098,29.1503268 27.8164216,29.2003268 27.6497549,29.2003268 C27.2497549,29.1336601 26.7664216,28.9500817 26.1997549,28.6503268 C25.7330882,28.3836601 25.1414216,28.0086601 24.4247549,27.5252451 C23.7080882,27.0419118 22.8830882,26.333415 21.9497549,25.4000817 C21.2830882,24.7003268 20.6664216,24.0000817 20.0997549,23.3000817 C19.6330882,22.733415 19.1997549,22.1167484 18.7997549,21.4500817 C18.3997549,20.783415 18.1830882,20.2000817 18.1497549,19.7000817 C18.1497549,19.533415 18.1997549,19.4000817 18.2997549,19.3000817 L19.7997549,17.8000817 C20.0664216,17.533415 20.2330882,17.208415 20.2997549,16.8250817 C20.3664216,16.4417484 20.3164216,16.083415 20.1497549,15.7500817 L16.8997549,9.6500817 C16.6330882,9.11674837 16.2330882,8.8500817 15.6997549,8.8500817 C15.3664216,8.8500817 15.0330882,8.98341503 14.6997549,9.2500817 L10.6997549,13.3000817 C10.4997549,13.4667484 10.3247549,13.708415 10.1747549,14.0250817 C10.0247549,14.3417484 9.93308824,14.633415 9.8997549,14.9000817 L9.8997549,16.1500817 C9.8997549,16.1500817 10.1164216,17.183415 10.5497549,19.2500817 C10.9830882,21.3167484 13.326178,24.9706669 15.426178,27.8373336 C17.526178,30.7040002 21.0830882,32.9667484 22.6497549,34.0001634 C24.2164216,35.0333333 25.6247549,35.8084967 26.8746732,36.3251634 C28.1247549,36.841585 29.1830882,37.1668301 30.0495098,37.3001634 C30.9161765,37.4334967 31.5328431,37.5001634 31.8996732,37.5001634 C32.0663399,37.5001634 32.1996732,37.4916667 32.2996732,37.4750817 C32.3999183,37.4584967 32.4663399,37.4499183 32.4996732,37.4499183 C32.7663399,37.416585 33.0495098,37.3249183 33.3496732,37.1749183 C33.6496732,37.0249183 33.8994281,36.8499183 34.0996732,36.6499183 L38.1,32.65 C38.4666667,32.2833333 38.6,31.8833333 38.5,31.45 Z" id="Shape"></path>
            </g>
        </g>
    </g>
</svg>