<?xml version="1.0" encoding="UTF-8"?>
<svg width="65px" height="50px" viewBox="0 0 65 50" version="1.1" xmlns="http://www.w3.org/2000/svg" xmlns:xlink="http://www.w3.org/1999/xlink">
    <!-- Generator: Sketch 43.2 (39069) - http://www.bohemiancoding.com/sketch -->
    <title>006-github-logo</title>
    <desc>Created with Sketch.</desc>
    <defs></defs>
    <g id="Page-1" stroke="none" stroke-width="1" fill="none" fill-rule="evenodd">
        <g id="Artboard-3" transform="translate(-378.000000, -54.000000)" fill-rule="nonzero" fill="#FFFFFF">
            <g id="006-github-logo" transform="translate(378.000000, 54.000000)">
                <path d="M46.935,0 C47.7707143,1.89785714 48.3121429,5.05 47.5042857,7.35785714 C50.8078571,10.1785714 51.9435714,17.0357143 50.3485714,22.6392857 C55.0571429,22.9985714 60.6657143,22.4664286 64.2857143,23.9114286 C60.9014286,23.4764286 56.2792857,22.6228571 51.9142857,22.92 C51.0871429,22.9764286 49.8621429,22.8885714 49.9221429,24.0521429 C54.975,24.4485714 59.9964286,24.8807143 64.145,26.1757143 C60.03,25.5035714 55.035,24.4792857 49.9221429,24.3371429 C47.81,28.505 43.5592857,30.5535714 37.6914286,30.985 C38.3221429,32.3578571 39.53,32.88 39.825,35.0878571 C40.265,38.3864286 39.1364286,43.2171429 40.25,45.4157143 C40.7842857,46.4692857 41.655,46.4971429 42.2421429,47.3978571 C40.805,49.0985714 37.2421429,47.2064286 36.8364286,45.4157143 C36.1414286,42.3478571 37.895,37.5921429 35.985,35.5121429 C36.1192857,38.8585714 35.1935714,43.5578571 36.1271429,46.5471429 C36.495,47.7228571 37.5571429,48.1764286 37.265,49.2371429 C30.585,49.915 33.3771429,40.5914286 32.285,35.0871429 C31.2771429,35.1592857 31.72,36.5964286 31.7164286,37.21 C31.6878571,42.5842857 32.8164286,49.9557143 27.0235714,49.2371429 C26.8542857,48.1071429 27.8007143,47.7235714 28.1614286,46.6921429 C29.2178571,43.6685714 27.9635714,39.1621429 28.4478571,35.5128571 C26.2371429,37.18 28.68,42.9985714 27.31,45.9821429 C26.5207143,47.6992857 23.9771429,48.4464286 22.0478571,47.68 C22.2992857,46.4014286 23.6192857,46.6078571 24.1792857,45.4164286 C24.9621429,43.7564286 24.185,41.3635714 24.4642857,38.9085714 C20.3721429,39.7257143 17.1978571,38.79 15.6442857,36.22 C14.9492857,35.0664286 14.7771429,33.7057143 13.9371429,32.6835714 C13.1014286,31.6607143 11.7657143,31.5228571 11.3785714,30.1385714 C16.4464286,28.9185714 16.6407143,35.3542857 21.1921429,35.5128571 C22.5878571,35.5635714 23.3135714,35.1107143 24.605,34.8071429 C24.9664286,33.1842857 25.74,31.9735714 26.8807143,31.1264286 C21.2171429,30.3514286 16.54,28.5878571 14.365,24.3378571 C9.21642857,24.5907143 4.505,25.2785714 0.141428571,26.3171429 C4.10214286,24.8785714 8.98714286,24.3628571 14.2235714,24.1935714 C13.915,22.3392857 11.21,22.8492857 9.53071429,22.9207143 C6.40928571,23.0578571 2.48071429,23.4457143 0,23.9114286 C3.59571429,22.6292857 8.64142857,22.7892857 13.5128571,22.7792857 C12.0228571,18.1078571 12.5392857,10.6871429 15.7885714,7.92357143 C14.8678571,5.60285714 15.1535714,1.80714286 16.3571429,0 C19.985,0.162857143 22.185,1.745 24.4642857,3.255 C27.2907143,2.45142857 30.2628571,2.05142857 34.1357143,2.26428571 C35.7642857,2.35428571 37.4578571,3.08642857 38.685,2.97071429 C39.8885714,2.85785714 41.215,1.50714286 42.3835714,0.991428571 C43.9057143,0.319285714 45.1935714,0.0628571429 46.935,0 Z" id="Github__x28_alt_x29_"></path>
            </g>
        </g>
    </g>
</svg>