<?xml version="1.0" encoding="UTF-8"?>
<svg width="33px" height="34px" viewBox="0 0 33 34" version="1.1" xmlns="http://www.w3.org/2000/svg" xmlns:xlink="http://www.w3.org/1999/xlink">
    <!-- Generator: Sketch 43.2 (39069) - http://www.bohemiancoding.com/sketch -->
    <title>Brain Air View(mini)</title>
    <desc>Created with Sketch.</desc>
    <defs></defs>
    <g id="Page-1" stroke="none" stroke-width="1" fill="none" fill-rule="evenodd">
        <g id="Desktop-HD" transform="translate(-657.000000, -4180.000000)">
            <g id="Brain-Air-View(mini)" transform="translate(658.000000, 4181.000000)">
                <path d="M9.21499991,29.579151 C8.81059388,29.8758037 8.32838029,30.0480591 7.81063073,30.0480591 C6.38235136,30.0480591 5.22450216,28.7371886 5.22450216,27.1201479 C5.22450216,26.8455259 5.2578971,26.5797346 5.32034015,26.3276951 C4.92051222,26.4772747 4.49310069,26.5582255 4.04898917,26.5582255 C1.8127942,26.5582255 0,24.5058525 0,21.974122 C0,20.768635 0.410996986,19.671828 1.0830016,18.8535129 C0.415953073,18.1367626 0,17.1233766 0,16 C0,14.4897258 0.751805027,13.1782515 1.85482485,12.5191094 C1.80356238,12.2891462 1.77633073,12.0483584 1.77633073,11.8003697 C1.77633073,10.7998111 2.21962804,9.91647374 2.89599329,9.38837079 C2.88110841,9.22856295 2.87347619,9.06630721 2.87347619,8.90203327 C2.87347619,6.8288265 4.0890989,5.077067 5.75738622,4.51054543 C5.86901815,3.17458203 6.8626264,2.12939002 8.07185583,2.12939002 C8.48388521,2.12939002 8.87088058,2.25073869 9.2064808,2.463591 C9.47786435,1.05482191 10.5858029,0 11.9118649,0 C13.4411337,0 14.6808511,1.40332791 14.6808511,3.13478828 L14.6808511,28.8652117 C14.6808511,30.5965075 13.44147,32 11.9118649,32 C10.5995206,32 9.50040888,30.9665556 9.21499991,29.579151 L9.21499991,29.579151 Z" id="Combined-Shape-Copy-4" stroke="#504F4F" stroke-width="0.638977636" fill="#C0C0C0"></path>
                <path d="M12.608999,16.487619 L12.608999,13.7273323 L10.8367277,11.9161905 L10.8196721,11.9161905 L10.8196721,1.82436455 C10.5880155,1.74068986 10.4220439,1.5149143 10.4220439,1.24952381 C10.4220439,0.912893105 10.6890803,0.64 11.0184862,0.64 C11.3478922,0.64 11.6149285,0.912893105 11.6149285,1.24952381 C11.6149285,1.5149143 11.448957,1.74068986 11.2173003,1.82436455 L11.2173003,11.7304455 L12.608999,13.1526677 L12.608999,3.55134868 C12.3773423,3.46767398 12.2113708,3.24189843 12.2113708,2.97650794 C12.2113708,2.63987723 12.4784071,2.36698413 12.807813,2.36698413 C13.137219,2.36698413 13.4042553,2.63987723 13.4042553,2.97650794 C13.4042553,3.24189843 13.2382838,3.46767398 13.0066271,3.55134868 L13.0066271,21.7621915 L13.0144233,21.7701587 L13.0066271,21.7781259 L13.0066271,26.4860011 L13.0144233,26.4939683 L13.0066271,26.5019355 L13.0066271,26.5193651 L12.9895716,26.5193651 L11.0018019,28.5507318 C11.0442265,28.6345119 11.0681897,28.7296342 11.0681897,28.8304762 C11.0681897,29.1671069 10.8011534,29.44 10.4717475,29.44 C10.1423415,29.44 9.8753052,29.1671069 9.8753052,28.8304762 C9.8753052,28.4938455 10.1423415,28.2209524 10.4717475,28.2209524 C10.5571714,28.2209524 10.6384009,28.2393046 10.7118667,28.2723614 L12.608999,26.3336201 L12.608999,22.1844751 L7.77107288,27.1285095 C7.81349751,27.2122897 7.83746076,27.307412 7.83746076,27.408254 C7.83746076,27.7448847 7.57042446,28.0177778 7.24101849,28.0177778 C6.91161251,28.0177778 6.64457621,27.7448847 6.64457621,27.408254 C6.64457621,27.0716233 6.91161251,26.7987302 7.24101849,26.7987302 C7.32644242,26.7987302 7.40767196,26.8170824 7.48113772,26.8501392 L10.3645442,23.9034921 L4.48247297,23.9034921 L4.48247297,23.8606656 L4.45762121,23.8860624 L2.64241117,22.0310401 C2.57362088,22.0593429 2.49847896,22.0749206 2.41977677,22.0749206 C2.0903708,22.0749206 1.8233345,21.8020275 1.8233345,21.4653968 C1.8233345,21.1287661 2.0903708,20.855873 2.41977677,20.855873 C2.74918274,20.855873 3.01621904,21.1287661 3.01621904,21.4653968 C3.01621904,21.5729282 2.98897111,21.673956 2.94114627,21.7616627 L4.63937975,23.4971429 L10.7621724,23.4971429 L12.608999,21.6098106 L12.608999,16.8939683 L10.8026166,16.8939683 L7.36527729,20.4066974 L7.08411171,20.1193651 L10.2402854,16.8939683 L3.24768111,16.8939683 L3.2398849,16.9019355 L3.23208869,16.8939683 L3.21503314,16.8939683 L3.21503314,16.8765386 L2.13018724,15.7678992 C2.05232463,15.805978 1.96511808,15.8273016 1.87303802,15.8273016 C1.54363205,15.8273016 1.27659574,15.5544085 1.27659574,15.2177778 C1.27659574,14.8811471 1.54363205,14.608254 1.87303802,14.608254 C2.20244399,14.608254 2.46948029,14.8811471 2.46948029,15.2177778 C2.46948029,15.3118774 2.44861433,15.4009966 2.41135282,15.4805669 L3.39679167,16.487619 L6.86044586,16.487619 L3.28754477,12.8363549 L3.29329732,12.8304762 L3.26473666,12.8304762 L3.26473666,11.1703963 C3.03308,11.0867216 2.86710848,10.860946 2.86710848,10.5955556 C2.86710848,10.2589249 3.13414478,9.98603175 3.46355075,9.98603175 C3.79295672,9.98603175 4.05999302,10.2589249 4.05999302,10.5955556 C4.05999302,10.860946 3.8940215,11.0867216 3.66236484,11.1703963 L3.66236484,12.6447312 L5.103767,14.1177471 L8.23508894,10.9177471 L8.23508894,5.06701482 L6.13085663,7.21739844 C6.17328126,7.30117855 6.19724451,7.39630087 6.19724451,7.49714286 C6.19724451,7.83377356 5.9302082,8.10666667 5.60080223,8.10666667 C5.27139626,8.10666667 5.00435996,7.83377356 5.00435996,7.49714286 C5.00435996,7.16051215 5.27139626,6.88761905 5.60080223,6.88761905 C5.68622617,6.88761905 5.7674557,6.90597127 5.84092147,6.93902807 L8.23508894,4.49235026 L8.23508894,2.87492063 L8.63271713,2.87492063 L8.63271713,11.1034921 L8.61566157,11.1034921 L5.38493259,14.4050794 L7.42277702,16.487619 L12.608999,16.487619 Z" id="Combined-Shape-Copy-3" fill="#504F4F" fill-rule="nonzero"></path>
                <path d="M25.5341488,29.579151 C25.1297428,29.8758037 24.6475292,30.0480591 24.1297797,30.0480591 C22.7015003,30.0480591 21.5436511,28.7371886 21.5436511,27.1201479 C21.5436511,26.8455259 21.577046,26.5797346 21.6394891,26.3276951 C21.2396612,26.4772747 20.8122496,26.5582255 20.3681381,26.5582255 C18.1319431,26.5582255 16.3191489,24.5058525 16.3191489,21.974122 C16.3191489,20.768635 16.7301459,19.671828 17.4021505,18.8535129 C16.735102,18.1367626 16.3191489,17.1233766 16.3191489,16 C16.3191489,14.4897258 17.070954,13.1782515 18.1739738,12.5191094 C18.1227113,12.2891462 18.0954797,12.0483584 18.0954797,11.8003697 C18.0954797,10.7998111 18.538777,9.91647374 19.2151422,9.38837079 C19.2002573,9.22856295 19.1926251,9.06630721 19.1926251,8.90203327 C19.1926251,6.8288265 20.4082478,5.077067 22.0765352,4.51054543 C22.1881671,3.17458203 23.1817753,2.12939002 24.3910048,2.12939002 C24.8030341,2.12939002 25.1900295,2.25073869 25.5256297,2.463591 C25.7970133,1.05482191 26.9049518,0 28.2310139,0 C29.7602827,0 31,1.40332791 31,3.13478828 L31,28.8652117 C31,30.5965075 29.7606189,32 28.2310139,32 C26.9186695,32 25.8195578,30.9665556 25.5341488,29.579151 L25.5341488,29.579151 Z" id="Combined-Shape-Copy-6" stroke="#504F4F" stroke-width="0.638977636" fill="#C0C0C0" transform="translate(23.659574, 16.000000) scale(-1, 1) translate(-23.659574, -16.000000) "></path>
                <path d="M28.9281479,16.487619 L28.9281479,13.7273323 L27.1558766,11.9161905 L27.1388211,11.9161905 L27.1388211,1.82436455 C26.9071644,1.74068986 26.7411929,1.5149143 26.7411929,1.24952381 C26.7411929,0.912893105 27.0082292,0.64 27.3376352,0.64 C27.6670411,0.64 27.9340774,0.912893105 27.9340774,1.24952381 C27.9340774,1.5149143 27.7681059,1.74068986 27.5364493,1.82436455 L27.5364493,11.7304455 L28.9281479,13.1526677 L28.9281479,3.55134868 C28.6964912,3.46767398 28.5305197,3.24189843 28.5305197,2.97650794 C28.5305197,2.63987723 28.797556,2.36698413 29.126962,2.36698413 C29.456368,2.36698413 29.7234043,2.63987723 29.7234043,2.97650794 C29.7234043,3.24189843 29.5574327,3.46767398 29.3257761,3.55134868 L29.3257761,21.7621915 L29.3335723,21.7701587 L29.3257761,21.7781259 L29.3257761,26.4860011 L29.3335723,26.4939683 L29.3257761,26.5019355 L29.3257761,26.5193651 L29.3087205,26.5193651 L27.3209508,28.5507318 C27.3633754,28.6345119 27.3873387,28.7296342 27.3873387,28.8304762 C27.3873387,29.1671069 27.1203024,29.44 26.7908964,29.44 C26.4614904,29.44 26.1944541,29.1671069 26.1944541,28.8304762 C26.1944541,28.4938455 26.4614904,28.2209524 26.7908964,28.2209524 C26.8763203,28.2209524 26.9575499,28.2393046 27.0310156,28.2723614 L28.9281479,26.3336201 L28.9281479,22.1844751 L24.0902218,27.1285095 C24.1326464,27.2122897 24.1566097,27.307412 24.1566097,27.408254 C24.1566097,27.7448847 23.8895734,28.0177778 23.5601674,28.0177778 C23.2307615,28.0177778 22.9637251,27.7448847 22.9637251,27.408254 C22.9637251,27.0716233 23.2307615,26.7987302 23.5601674,26.7987302 C23.6455914,26.7987302 23.7268209,26.8170824 23.8002867,26.8501392 L26.6836932,23.9034921 L20.8016219,23.9034921 L20.8016219,23.8606656 L20.7767701,23.8860624 L18.9615601,22.0310401 C18.8927698,22.0593429 18.8176279,22.0749206 18.7389257,22.0749206 C18.4095197,22.0749206 18.1424834,21.8020275 18.1424834,21.4653968 C18.1424834,21.1287661 18.4095197,20.855873 18.7389257,20.855873 C19.0683317,20.855873 19.335368,21.1287661 19.335368,21.4653968 C19.335368,21.5729282 19.3081201,21.673956 19.2602952,21.7616627 L20.9585287,23.4971429 L27.0813213,23.4971429 L28.9281479,21.6098106 L28.9281479,16.8939683 L27.1217655,16.8939683 L23.6844262,20.4066974 L23.4032606,20.1193651 L26.5594343,16.8939683 L19.56683,16.8939683 L19.5590338,16.9019355 L19.5512376,16.8939683 L19.5341821,16.8939683 L19.5341821,16.8765386 L18.4493362,15.7678992 C18.3714736,15.805978 18.284267,15.8273016 18.192187,15.8273016 C17.862781,15.8273016 17.5957447,15.5544085 17.5957447,15.2177778 C17.5957447,14.8811471 17.862781,14.608254 18.192187,14.608254 C18.5215929,14.608254 18.7886292,14.8811471 18.7886292,15.2177778 C18.7886292,15.3118774 18.7677633,15.4009966 18.7305018,15.4805669 L19.7159406,16.487619 L23.1795948,16.487619 L19.6066937,12.8363549 L19.6124463,12.8304762 L19.5838856,12.8304762 L19.5838856,11.1703963 C19.3522289,11.0867216 19.1862574,10.860946 19.1862574,10.5955556 C19.1862574,10.2589249 19.4532937,9.98603175 19.7826997,9.98603175 C20.1121057,9.98603175 20.379142,10.2589249 20.379142,10.5955556 C20.379142,10.860946 20.2131704,11.0867216 19.9815138,11.1703963 L19.9815138,12.6447312 L21.4229159,14.1177471 L24.5542379,10.9177471 L24.5542379,5.06701482 L22.4500056,7.21739844 C22.4924302,7.30117855 22.5163934,7.39630087 22.5163934,7.49714286 C22.5163934,7.83377356 22.2493571,8.10666667 21.9199512,8.10666667 C21.5905452,8.10666667 21.3235089,7.83377356 21.3235089,7.49714286 C21.3235089,7.16051215 21.5905452,6.88761905 21.9199512,6.88761905 C22.0053751,6.88761905 22.0866046,6.90597127 22.1600704,6.93902807 L24.5542379,4.49235026 L24.5542379,2.87492063 L24.9518661,2.87492063 L24.9518661,11.1034921 L24.9348105,11.1034921 L21.7040815,14.4050794 L23.741926,16.487619 L28.9281479,16.487619 Z" id="Combined-Shape-Copy-5" fill="#504F4F" fill-rule="nonzero" transform="translate(23.659574, 15.040000) scale(-1, 1) translate(-23.659574, -15.040000) "></path>
            </g>
        </g>
    </g>
</svg>